LSLDJ_XZ.mot
version=1
datacolumns 20
datarows 46
range 2.050000 2.500000
inDegrees=yes
endheader
time	pelvis_tilt	pelvis_list	pelvis_rotation	hip_flexion_r	hip_adduction_r	hip_rotation_r	knee_angle_r	ankle_angle_r	hip_flexion_l	hip_adduction_l	hip_rotation_l	knee_angle_l	ankle_angle_l	pelvis_tx	pelvis_ty	pelvis_tz	lumbar_bending	lumbar_rotation	lumbar_extension
2.050000	-10.641782	-3.936712	25.894349	20.918690	-10.302979	5.822835	-37.922173	-9.753816	25.645907	-2.348685	-1.343331	-11.895242	1.306548	0.417875	0.961657	0.485632	2.817575	-2.979226	11.153745
2.060000	-10.770203	-3.730894	26.803421	19.652637	-10.338227	5.726191	-36.144682	-9.249816	26.107121	-2.099082	-1.224915	-11.984132	1.157738	0.416901	0.959664	0.492245	3.247762	-3.456153	11.116902
2.070000	-10.934305	-3.539629	27.696383	18.483855	-10.330992	5.617975	-34.466153	-8.381032	26.602627	-1.854915	-1.079267	-12.045155	0.968185	0.415817	0.957601	0.499048	3.649946	-3.938682	11.062572
2.080000	-11.146907	-3.374222	28.574849	17.448061	-10.283791	5.473481	-32.919390	-7.135998	27.145384	-1.618468	-0.884708	-12.069747	0.744733	0.414633	0.955490	0.506050	4.015437	-4.425546	11.005795
2.090000	-11.406962	-3.247611	29.442214	16.565928	-10.193813	5.272112	-31.523075	-5.544011	27.734641	-1.397487	-0.636407	-12.044997	0.497392	0.413356	0.953364	0.513247	4.348178	-4.905663	10.954874
2.100000	-11.694801	-3.168865	30.303229	15.833664	-10.053932	5.008228	-30.276524	-3.682253	28.351231	-1.203486	-0.350726	-11.956934	0.234737	0.411975	0.951261	0.520624	4.660308	-5.359090	10.904639
2.110000	-11.977750	-3.141339	31.163505	15.227155	-9.855020	4.692538	-29.162642	-1.670424	28.964030	-1.050051	-0.054629	-11.794426	-0.035819	0.410468	0.949222	0.528156	4.964719	-5.761425	10.839175
2.120000	-12.222380	-3.163876	32.026510	14.716227	-9.589630	4.344840	-28.156912	0.349685	29.541748	-0.951230	0.226952	-11.550784	-0.303463	0.408809	0.947284	0.535813	5.271245	-6.090801	10.740664
2.130000	-12.405397	-3.234122	32.891143	14.278697	-9.254920	3.983272	-27.236784	2.243679	30.062975	-0.919960	0.476242	-11.222947	-0.548832	0.406981	0.945476	0.543560	5.585898	-6.333019	10.597818
2.140000	-12.516528	-3.351290	33.754015	13.904164	-8.853203	3.616431	-26.386561	3.910407	30.518701	-0.965932	0.685000	-10.809817	-0.744450	0.404985	0.943819	0.551353	5.909039	-6.481924	10.408398
2.150000	-12.552637	-3.514707	34.614046	13.585789	-8.390913	3.244144	-25.596490	5.294999	30.905912	-1.093118	0.857728	-10.312012	-0.861485	0.402839	0.942321	0.559147	6.233528	-6.536645	10.174178
2.160000	-12.511365	-3.720644	35.473530	13.311799	-7.876743	2.864306	-24.859205	6.392186	31.221542	-1.298979	1.008986	-9.734672	-0.874286	0.400568	0.940983	0.566897	6.546817	-6.498917	9.896160
2.170000	-12.391499	-3.961096	36.335779	13.066166	-7.320865	2.478198	-24.167006	7.238203	31.464224	-1.574565	1.151740	-9.091041	-0.761607	0.398201	0.939797	0.574566	6.836379	-6.373250	9.575947
2.180000	-12.197468	-4.224066	37.203687	12.834383	-6.736241	2.091268	-23.510505	7.885274	31.639154	-1.903857	1.287807	-8.403085	-0.512459	0.395764	0.938753	0.582131	7.094371	-6.169472	9.218859
2.190000	-11.941501	-4.495630	38.081475	12.607534	-6.138938	1.710726	-22.879178	8.379023	31.760547	-2.264406	1.410078	-7.700037	-0.131111	0.393286	0.937838	0.589576	7.318958	-5.903274	8.833967
2.200000	-11.641489	-4.764342	38.977964	12.383674	-5.544977	1.342043	-22.264591	8.762255	31.851637	-2.631166	1.512830	-7.017670	0.370094	0.390794	0.937043	0.596902	7.512389	-5.592542	8.432081
2.210000	-11.318824	-5.024957	39.907204	12.169389	-4.967650	0.986001	-21.663861	9.083738	31.943315	-2.980138	1.598389	-6.396811	0.981310	0.388314	0.936360	0.604115	7.679167	-5.254210	8.025231
2.220000	-10.998477	-5.278383	40.886524	11.980695	-4.419621	0.636741	-21.079829	9.387565	32.071181	-3.287460	1.674415	-5.879956	1.695131	0.385873	0.935795	0.611227	7.824244	-4.905253	7.627981
2.230000	-10.707677	-5.528169	41.934262	11.839259	-3.917027	0.283112	-20.518466	9.699648	32.269803	-3.526196	1.746006	-5.507895	2.499105	0.383494	0.935365	0.618242	7.950066	-4.565096	7.257275
2.240000	-10.471940	-5.776053	43.065696	11.765158	-3.480385	-0.085742	-19.985980	10.025048	32.564823	-3.666539	1.808088	-5.316499	3.368159	0.381196	0.935104	0.625161	8.055599	-4.256556	6.929635
2.250000	-10.311130	-6.019521	44.286630	11.770945	-3.130981	-0.473220	-19.486416	10.349593	32.966527	-3.681358	1.841383	-5.332675	4.260714	0.378990	0.935052	0.631979	8.139385	-4.004589	6.657635
2.260000	-10.237230	-6.252438	45.588070	11.858900	-2.885677	-0.870264	-19.019737	10.645240	33.467791	-3.553717	1.815049	-5.570756	5.124568	0.376875	0.935248	0.638683	8.203931	-3.832659	6.447159
2.270000	-10.252643	-6.467557	46.946255	12.020266	-2.752725	-1.255179	-18.580845	10.881137	34.046344	-3.282159	1.697537	-6.031761	5.913936	0.374840	0.935723	0.645247	8.257361	-3.756788	6.295386
2.280000	-10.347665	-6.659833	48.328677	12.235784	-2.727625	-1.599153	-18.159978	11.036833	34.670235	-2.883349	1.472027	-6.706827	6.609607	0.372856	0.936488	0.651635	8.311167	-3.778308	6.190268
2.290000	-10.499741	-6.829476	49.703380	12.479012	-2.790452	-1.876684	-17.744100	11.108861	35.305796	-2.390914	1.148098	-7.582914	7.226708	0.370877	0.937531	0.657812	8.375810	-3.879983	6.113656
2.300000	-10.678480	-6.982506	51.048186	12.722516	-2.910066	-2.076585	-17.318949	11.104709	35.925750	-1.846651	0.761687	-8.646645	7.799776	0.368853	0.938816	0.663752	8.455867	-4.030736	6.047588
2.310000	-10.855815	-7.128321	52.355104	12.945298	-3.055111	-2.206912	-16.872100	11.031844	36.514518	-1.287048	0.360299	-9.884211	8.355823	0.366740	0.940296	0.669447	8.547838	-4.197596	5.980582
2.320000	-11.016012	-7.277813	53.627280	13.139838	-3.203913	-2.293665	-16.396040	10.888712	37.070865	-0.734491	-0.020183	-11.279135	8.893379	0.364511	0.941919	0.674900	8.642264	-4.356907	5.912372
2.330000	-11.159469	-7.442781	54.871798	13.314238	-3.347304	-2.374574	-15.888806	10.661717	37.606590	-0.197751	-0.372575	-12.810523	9.379736	0.362168	0.943640	0.680124	8.727670	-4.498856	5.854926
2.340000	-11.299093	-7.632664	56.093441	13.485127	-3.487124	-2.485059	-15.352004	10.336487	38.138525	0.322883	-0.717116	-14.453493	9.770488	0.359737	0.945418	0.685140	8.793248	-4.626420	5.826755
2.350000	-11.453370	-7.849502	57.292053	13.666426	-3.634430	-2.642527	-14.788454	9.916037	38.678327	0.831462	-1.085218	-16.182171	10.035351	0.357262	0.947218	0.689972	8.829602	-4.751791	5.843919
2.360000	-11.639772	-8.087321	58.462758	13.863664	-3.805829	-2.842164	-14.201032	9.426419	39.228543	1.332623	-1.503092	-17.973818	10.168101	0.354786	0.949003	0.694647	8.829246	-4.890672	5.915105
2.370000	-11.869572	-8.336275	59.597006	14.075048	-4.017146	-3.065489	-13.592746	8.907907	39.784847	1.827036	-1.983637	-19.811657	10.180187	0.352339	0.950734	0.699185	8.788542	-5.055601	6.041895
2.380000	-12.144196	-8.585129	60.683985	14.292490	-4.277977	-3.290881	-12.967334	8.403639	40.336882	2.308513	-2.523800	-21.684655	10.092428	0.349926	0.952372	0.703601	8.710294	-5.251580	6.218611
2.390000	-12.454450	-8.821694	61.712761	14.501939	-4.589240	-3.501158	-12.329702	7.949879	40.867181	2.764480	-3.105988	-23.584016	9.930856	0.347532	0.953885	0.707898	8.604993	-5.475733	6.431728
2.400000	-12.784037	-9.036858	62.675703	14.688850	-4.943040	-3.691182	-11.686175	7.565792	41.355197	3.179124	-3.705660	-25.498543	9.722705	0.345133	0.955252	0.712065	8.488783	-5.719983	6.664810
2.410000	-13.113041	-9.226128	63.573104	14.840671	-5.324638	-3.868211	-11.043907	7.251593	41.779946	3.537565	-4.294799	-27.411495	9.494636	0.342710	0.956464	0.716085	8.378072	-5.974176	6.902164
2.420000	-13.419214	-9.385753	64.416486	14.942965	-5.716081	-4.042223	-10.408934	6.997157	42.117640	3.829559	-4.836774	-29.300022	9.275051	0.340255	0.957525	0.719939	8.283689	-6.228075	7.127119
2.430000	-13.682523	-9.517542	65.226655	14.986631	-6.098927	-4.222521	-9.784963	6.783864	42.350487	4.050208	-5.291189	-31.137563	9.090665	0.337768	0.958445	0.723619	8.208558	-6.472753	7.329405
2.440000	-13.890657	-9.639922	66.025610	14.983219	-6.453687	-4.423203	-9.174211	6.580594	42.482749	4.194995	-5.631037	-32.898231	8.957282	0.335265	0.959241	0.727114	8.151048	-6.700828	7.518463
2.450000	-14.037890	-9.785078	66.827787	14.963819	-6.758814	-4.662582	-8.578652	6.350243	42.539809	4.253593	-5.851209	-34.560798	8.877258	0.332765	0.959922	0.730414	8.110832	-6.905125	7.721235
2.460000	-14.119365	-9.981835	67.638854	14.959723	-6.994079	-4.956087	-8.000006	6.064293	42.550049	4.211348	-5.962581	-36.110875	8.845313	0.330282	0.960494	0.733522	8.089650	-7.077640	7.964446
2.470000	-14.128830	-10.242686	68.461806	14.986382	-7.147203	-5.312831	-7.439158	5.712707	42.530865	4.058324	-5.984307	-37.541179	8.854641	0.327813	0.960952	0.736451	8.086246	-7.210677	8.261118
2.480000	-14.061049	-10.560351	69.301682	15.038932	-7.218557	-5.733167	-6.895766	5.304896	42.484624	3.797292	-5.939169	-38.850142	8.900231	0.325341	0.961284	0.739224	8.093128	-7.299483	8.606679
2.490000	-13.914276	-10.908979	70.164540	15.093729	-7.220121	-6.202244	-6.367572	4.863583	42.398599	3.444512	-5.849302	-40.040151	8.981391	0.322837	0.961475	0.741866	8.099155	-7.343186	8.978908
2.500000	-13.692440	-11.253248	71.053620	15.118115	-7.170088	-6.688192	-5.849711	4.415036	42.252696	3.024723	-5.735556	-41.116017	9.101713	0.320273	0.961517	0.744406	8.094600	-7.343761	9.345190
